<svg width="19" height="15" viewBox="0 0 19 15" fill="none" xmlns="http://www.w3.org/2000/svg">
<path fill-rule="evenodd" clip-rule="evenodd" d="M9.90517 9.01165L9.99927 9.01167L10.2098 9.01239C11.8186 9.02298 15.4952 9.1855 15.4952 11.6775C15.4952 14.1531 11.9467 14.3145 10.2348 14.3251L9.60058 14.3251C7.99166 14.3145 4.31434 14.1522 4.31434 11.6633C4.31434 9.18458 7.99166 9.02292 9.60058 9.01238L9.81108 9.01167C9.84373 9.01165 9.87512 9.01165 9.90517 9.01165ZM9.90517 10.2616C7.92517 10.2616 5.56434 10.505 5.56434 11.6633C5.56434 12.7954 7.78426 13.0601 9.7242 13.0751L9.90517 13.0758C11.8852 13.0758 14.2452 12.8333 14.2452 11.6775C14.2452 10.5075 11.8852 10.2616 9.90517 10.2616ZM16.5332 8.67348C18.5523 8.97598 18.9765 9.92431 18.9765 10.6668C18.9765 11.1201 18.7982 11.9476 17.6065 12.4018C17.5332 12.4293 17.4582 12.4426 17.384 12.4426C17.1323 12.4426 16.8948 12.2893 16.7998 12.0401C16.6765 11.7176 16.839 11.356 17.1615 11.2335C17.7265 11.0185 17.7265 10.781 17.7265 10.6668C17.7265 10.3018 17.2623 10.0468 16.3473 9.91015C16.0065 9.85848 15.7707 9.54098 15.8215 9.19848C15.8723 8.85681 16.189 8.62931 16.5332 8.67348ZM3.98801 9.19848C4.03884 9.54098 3.80301 9.85848 3.46217 9.91015C2.54717 10.0468 2.08301 10.3018 2.08301 10.6668C2.08301 10.781 2.08301 11.0176 2.64884 11.2335C2.97134 11.356 3.13384 11.7176 3.01051 12.0401C2.91551 12.2893 2.67801 12.4426 2.42634 12.4426C2.35217 12.4426 2.27717 12.4293 2.20384 12.4018C1.01134 11.9468 0.833008 11.1193 0.833008 10.6668C0.833008 9.92515 1.25717 8.97598 3.27717 8.67348C3.62134 8.63015 3.93634 8.85681 3.98801 9.19848ZM9.90517 0.333313C12.0052 0.333313 13.7127 2.04165 13.7127 4.14081C13.7127 6.23998 12.0052 7.94831 9.90517 7.94831H9.88267C8.86601 7.94498 7.91351 7.54665 7.20017 6.82665C6.48517 6.10748 6.09434 5.15248 6.09847 4.13831C6.09847 2.04165 7.80601 0.333313 9.90517 0.333313ZM9.90517 1.58331C8.49517 1.58331 7.34849 2.73081 7.34849 4.14081C7.34601 4.82415 7.60767 5.46331 8.08684 5.94581C8.56601 6.42831 9.20434 6.69581 9.88434 6.69831L9.90517 7.32331V6.69831C11.3152 6.69831 12.4627 5.55165 12.4627 4.14081C12.4627 2.73081 11.3152 1.58331 9.90517 1.58331ZM15.0627 1.14956C16.5277 1.3904 17.5918 2.64373 17.5918 4.12956C17.5885 5.6254 16.471 6.90873 14.9918 7.11623C14.9627 7.1204 14.9335 7.12206 14.9052 7.12206C14.5985 7.12206 14.331 6.89623 14.2868 6.58373C14.2393 6.24123 14.4768 5.9254 14.8193 5.8779C15.686 5.75623 16.3402 5.00456 16.3418 4.1279C16.3418 3.25873 15.7185 2.52373 14.8593 2.3829C14.5193 2.32706 14.2885 2.0054 14.3443 1.66456C14.401 1.32373 14.7202 1.0954 15.0627 1.14956ZM5.46601 1.66456C5.52184 2.0054 5.29101 2.32706 4.95101 2.3829C4.09184 2.52373 3.46851 3.25873 3.46851 4.12956C3.47017 5.00456 4.12434 5.75706 4.99017 5.8779C5.33267 5.9254 5.57017 6.24123 5.52267 6.58373C5.47851 6.89623 5.21101 7.12206 4.90434 7.12206C4.87601 7.12206 4.84684 7.1204 4.81767 7.11623C3.33851 6.90873 2.22184 5.6254 2.21851 4.13123C2.21851 2.64373 3.28267 1.3904 4.74767 1.14956C5.09851 1.09456 5.40934 1.3254 5.46601 1.66456Z" fill="#D4D4D4"/>
</svg>
