<svg width="17" height="17" viewBox="0 0 17 17" fill="none" xmlns="http://www.w3.org/2000/svg">
<path fill-rule="evenodd" clip-rule="evenodd" d="M4.20866 9.83335C7.59949 9.83335 7.75033 10.9834 7.75033 13.375C7.75033 14.5734 7.75033 15.4259 7.24699 16.05C6.66783 16.7692 5.61366 16.9167 4.20866 16.9167C2.80366 16.9167 1.74949 16.7692 1.17033 16.05C0.666992 15.4259 0.666992 14.5742 0.666992 13.3959L1.29199 13.375H0.666992C0.666992 10.9834 0.817826 9.83335 4.20866 9.83335ZM13.3753 9.83335C16.7662 9.83335 16.917 10.9834 16.917 13.375C16.917 14.5734 16.917 15.4259 16.4137 16.05C15.8345 16.7692 14.7803 16.9167 13.3753 16.9167C11.9703 16.9167 10.9162 16.7692 10.337 16.05C9.83366 15.4259 9.83366 14.5742 9.83366 13.3959L10.4587 13.375H9.83366C9.83366 10.9834 9.98449 9.83335 13.3753 9.83335ZM4.38046 11.0837L4.20866 11.0834C2.03451 11.0834 1.92302 11.2394 1.9173 13.0642L1.91765 13.7752C1.9216 14.501 1.94925 15.0253 2.14283 15.2667C2.36366 15.54 3.01949 15.6667 4.20866 15.6667C5.39783 15.6667 6.05366 15.5392 6.27449 15.2659C6.50033 14.985 6.50033 14.3184 6.50033 13.395C6.50033 11.3115 6.50033 11.0935 4.38046 11.0837ZM13.5471 11.0837L13.3753 11.0834C11.2012 11.0834 11.0897 11.2394 11.084 13.0642L11.0843 13.7752C11.0883 14.501 11.1159 15.0253 11.3095 15.2667C11.5303 15.54 12.1862 15.6667 13.3753 15.6667C14.5645 15.6667 15.2203 15.5392 15.4412 15.2659C15.667 14.985 15.667 14.3184 15.667 13.395C15.667 11.3115 15.667 11.0935 13.5471 11.0837ZM4.20866 0.666687C7.59949 0.666687 7.75033 1.81669 7.75033 4.20835C7.75033 5.40669 7.75033 6.25919 7.24699 6.88335C6.66783 7.60252 5.61366 7.75002 4.20866 7.75002C2.80366 7.75002 1.74949 7.60252 1.17033 6.88335C0.666992 6.25919 0.666992 5.40752 0.666992 4.22919L1.29199 4.20835H0.666992C0.666992 1.81669 0.817826 0.666687 4.20866 0.666687ZM13.3753 0.666687C16.7662 0.666687 16.917 1.81669 16.917 4.20835C16.917 5.40669 16.917 6.25919 16.4137 6.88335C15.8345 7.60252 14.7803 7.75002 13.3753 7.75002C11.9703 7.75002 10.9162 7.60252 10.337 6.88335C9.83366 6.25919 9.83366 5.40752 9.83366 4.22919L10.4587 4.20835H9.83366C9.83366 1.81669 9.98449 0.666687 13.3753 0.666687ZM4.38046 1.91706L4.20866 1.91669C2.03451 1.91669 1.92302 2.0727 1.9173 3.89756L1.91765 4.6085C1.9216 5.33431 1.94925 5.85859 2.14283 6.10002C2.36366 6.37335 3.01949 6.50002 4.20866 6.50002C5.39783 6.50002 6.05366 6.37252 6.27449 6.09919C6.50033 5.81835 6.50033 5.15169 6.50033 4.22835C6.50033 2.14485 6.50033 1.92687 4.38046 1.91706ZM13.5471 1.91706L13.3753 1.91669C11.2012 1.91669 11.0897 2.0727 11.084 3.89756L11.0843 4.6085C11.0883 5.33431 11.1159 5.85859 11.3095 6.10002C11.5303 6.37335 12.1862 6.50002 13.3753 6.50002C14.5645 6.50002 15.2203 6.37252 15.4412 6.09919C15.667 5.81835 15.667 5.15169 15.667 4.22835C15.667 2.14485 15.667 1.92687 13.5471 1.91706Z" fill="#D4D4D4"/>
</svg>
