<svg width="26" height="26" viewBox="0 0 26 26" fill="none" xmlns="http://www.w3.org/2000/svg">
<path fill-rule="evenodd" clip-rule="evenodd" d="M7.42949 21.9397C8.32199 21.9397 9.04824 22.6647 9.04824 23.5572C9.04824 24.4497 8.32199 25.176 7.42949 25.176C6.53699 25.176 5.81199 24.4497 5.81199 23.5572C5.81199 22.6647 6.53699 21.9397 7.42949 21.9397ZM21.5299 21.9397C22.4236 21.9397 23.1499 22.6647 23.1499 23.5572C23.1499 24.4497 22.4236 25.176 21.5299 25.176C20.6374 25.176 19.9124 24.4497 19.9124 23.5572C19.9124 22.6647 20.6374 21.9397 21.5299 21.9397ZM2.08474 0.761737L4.68474 1.21174C5.10349 1.28549 5.42224 1.63299 5.45849 2.05799L5.75224 5.55924L6.84455 5.55971C7.02279 5.55979 7.19915 5.55986 7.37364 5.55994L9.37902 5.5609C9.53887 5.56098 9.69693 5.56106 9.85322 5.56114L12.0675 5.56235C12.2066 5.56243 12.344 5.56252 12.4798 5.5626L14.0315 5.56359C14.1544 5.56367 14.2758 5.56375 14.3956 5.56384L15.7603 5.56484C15.8681 5.56493 15.9744 5.56501 16.0792 5.5651L17.2691 5.56612C17.3627 5.5662 17.455 5.56629 17.5458 5.56638L18.3279 5.56715C18.4109 5.56724 18.4926 5.56733 18.573 5.56741L19.4787 5.56847C19.5494 5.56855 19.6188 5.56864 19.6871 5.56873L20.4518 5.5698C20.5111 5.56989 20.5693 5.56998 20.6264 5.57007L21.1124 5.57088C21.1634 5.57097 21.2133 5.57106 21.2622 5.57115L21.8036 5.57225C21.845 5.57234 21.8855 5.57243 21.9251 5.57252L22.2583 5.57336C22.2928 5.57345 22.3265 5.57354 22.3594 5.57364L22.7166 5.57476C22.7433 5.57486 22.7694 5.57495 22.7947 5.57505L23.0045 5.5759C23.0258 5.576 23.0465 5.57609 23.0665 5.57619L23.2787 5.57735C23.2941 5.57744 23.3089 5.57754 23.3233 5.57764L23.4389 5.57851C23.4503 5.57861 23.4613 5.57871 23.4718 5.57881L23.555 5.5797C23.5631 5.5798 23.5707 5.57989 23.5781 5.57999L23.6347 5.58089C23.64 5.58099 23.6451 5.58109 23.6498 5.58119L23.6857 5.5821C23.6889 5.5822 23.692 5.5823 23.6948 5.5824L23.7208 5.58363C23.7224 5.58373 23.7239 5.58383 23.7252 5.58393C23.7374 5.58507 23.7392 5.58528 23.741 5.58549C24.4372 5.68674 25.0497 6.05049 25.4672 6.61049C25.8847 7.16924 26.0597 7.85799 25.9597 8.54799L24.7735 16.7455C24.5497 18.3055 23.1947 19.4817 21.6197 19.4817H7.96849C6.32224 19.4817 4.92849 18.1967 4.79474 16.553L3.64974 2.93549L1.76599 2.61049C1.25474 2.52049 0.913486 2.03674 1.00099 1.52549C1.09099 1.01424 1.58474 0.681737 2.08474 0.761737ZM6.59378 7.43466L5.90974 7.43424L6.66349 16.3992C6.71849 17.0892 7.28224 17.6067 7.97099 17.6067H21.6172C22.2685 17.6067 22.8247 17.1217 22.9172 16.478L24.1047 8.27924C24.1322 8.08424 24.0835 7.88924 23.9647 7.73174C23.8472 7.57299 23.6747 7.47049 23.4797 7.44299C23.4707 7.44333 23.4491 7.44365 23.4156 7.44393L23.2796 7.44471C23.2512 7.44483 23.2199 7.44494 23.1859 7.44504L22.4777 7.44612C22.418 7.44616 22.3559 7.44619 22.2914 7.44623L20.6265 7.44616C20.5336 7.44612 20.4389 7.44608 20.3426 7.44604L18.4424 7.44489C18.3286 7.4448 18.2135 7.44472 18.0973 7.44463L17.0221 7.44377C16.8996 7.44367 16.7762 7.44356 16.652 7.44346L15.5132 7.44245C15.3845 7.44234 15.2553 7.44222 15.1255 7.4421L14.3411 7.44138C14.2094 7.44126 14.0774 7.44114 13.9451 7.44101L12.748 7.4399C12.6145 7.43977 12.4809 7.43965 12.3474 7.43952L11.5466 7.43878C11.4133 7.43865 11.2802 7.43853 11.1473 7.43841L10.3533 7.43769C10.2216 7.43757 10.0903 7.43745 9.95947 7.43734L8.79633 7.43634C8.66893 7.43623 8.54221 7.43612 8.41625 7.43602L6.94635 7.4349C6.82773 7.43482 6.71018 7.43474 6.59378 7.43466ZM19.6096 10.1796C20.1271 10.1796 20.5471 10.5996 20.5471 11.1171C20.5471 11.6346 20.1271 12.0546 19.6096 12.0546H16.1446C15.6259 12.0546 15.2071 11.6346 15.2071 11.1171C15.2071 10.5996 15.6259 10.1796 16.1446 10.1796H19.6096Z" fill="#D4D4D4"/>
</svg>
