<svg width="18" height="19" viewBox="0 0 18 19" fill="none" xmlns="http://www.w3.org/2000/svg">
<path fill-rule="evenodd" clip-rule="evenodd" d="M10.4312 12.7427C11.4345 12.7427 12.2512 13.5535 12.2512 14.5502V17.1135C12.2512 17.3277 12.4228 17.4994 12.6428 17.5044H14.2312C15.4828 17.5044 16.5003 16.4994 16.5003 15.2644V7.99435C16.4945 7.56935 16.292 7.16935 15.9445 6.90352L10.4503 2.52185C9.71283 1.93769 8.68116 1.93769 7.94116 2.52352L2.48449 6.90185C2.12366 7.17602 1.92116 7.57602 1.91699 8.00852V15.2644C1.91699 16.4994 2.93449 17.5044 4.18616 17.5044H5.78949C6.01533 17.5044 6.19866 17.3252 6.19866 17.1052C6.19866 17.0569 6.20449 17.0085 6.21449 16.9627V14.5502C6.21449 13.5594 7.02616 12.7494 8.02199 12.7427H10.4312ZM14.2312 18.7544H12.6278C11.7095 18.7327 11.0012 18.0119 11.0012 17.1135V14.5502C11.0012 14.2427 10.7453 13.9927 10.4312 13.9927H8.02616C7.71866 13.9944 7.46449 14.2452 7.46449 14.5502V17.1052C7.46449 17.1677 7.45616 17.2277 7.43866 17.2844C7.34866 18.1094 6.64366 18.7544 5.78949 18.7544H4.18616C2.24533 18.7544 0.666992 17.1885 0.666992 15.2644V8.00269C0.675326 7.17436 1.05699 6.41602 1.71616 5.91685L7.16199 1.54602C8.36116 0.596021 10.032 0.596021 11.2287 1.54435L16.7137 5.91935C17.3578 6.41019 17.7395 7.16685 17.7503 7.98519V15.2644C17.7503 17.1885 16.172 18.7544 14.2312 18.7544Z" fill="#D4D4D4"/>
</svg>
