<svg width="27" height="26" viewBox="0 0 27 26" fill="none" xmlns="http://www.w3.org/2000/svg">
<path fill-rule="evenodd" clip-rule="evenodd" d="M12.135 0.5C15.1925 0.5 17.68 2.9875 17.68 6.045V7.21C17.68 7.7275 17.26 8.1475 16.7425 8.1475C16.225 8.1475 15.805 7.7275 15.805 7.21V6.045C15.805 4.02 14.1587 2.375 12.135 2.375H6.04125C4.02 2.375 2.375 4.02 2.375 6.045V19.9562C2.375 21.98 4.02 23.625 6.04125 23.625H12.1487C14.1637 23.625 15.805 21.985 15.805 19.97V18.7913C15.805 18.2738 16.225 17.8538 16.7425 17.8538C17.26 17.8538 17.68 18.2738 17.68 18.7913V19.97C17.68 23.02 15.1975 25.5 12.1487 25.5H6.04125C2.98625 25.5 0.5 23.0138 0.5 19.9562V6.045C0.5 2.9875 2.98625 0.5 6.04125 0.5H12.135ZM22.2351 8.6925L25.8951 12.3363C25.9278 12.3687 25.957 12.4023 25.9838 12.438L25.8951 12.3363C25.9394 12.3799 25.9788 12.4276 26.013 12.4785C26.028 12.5016 26.0425 12.5254 26.056 12.5499C26.0669 12.569 26.0769 12.589 26.0862 12.6093C26.0941 12.6273 26.1017 12.6452 26.1087 12.6635C26.1181 12.6872 26.1264 12.7116 26.1336 12.7364C26.1391 12.7559 26.1441 12.7753 26.1485 12.795C26.1541 12.8189 26.1585 12.8429 26.1619 12.8671C26.1639 12.8828 26.1658 12.8993 26.1673 12.9159C26.1701 12.9445 26.1714 12.9722 26.1714 13L26.165 13.0775L26.1624 13.1272C26.1621 13.1293 26.1619 13.1314 26.1616 13.1335L26.1714 13C26.1714 13.0694 26.1637 13.1381 26.1488 13.2049C26.1441 13.2247 26.1391 13.2441 26.1335 13.2633C26.1264 13.2884 26.1181 13.3128 26.1089 13.3368C26.1017 13.3548 26.0941 13.3727 26.086 13.3904C26.0769 13.411 26.0669 13.431 26.0561 13.4506C26.0425 13.4746 26.028 13.4984 26.0125 13.5216C26.0037 13.5353 25.9941 13.5488 25.9841 13.5621C25.9543 13.6012 25.9219 13.6381 25.8868 13.6722L22.2351 17.3088C22.0526 17.4912 21.8126 17.5825 21.5739 17.5825C21.3339 17.5825 21.0926 17.4912 20.9101 17.3062C20.5451 16.9387 20.5464 16.3463 20.9126 15.9813L22.9625 13.9375H10.1823C9.66475 13.9375 9.24475 13.5175 9.24475 13C9.24475 12.4825 9.66475 12.0625 10.1823 12.0625H22.965L20.9126 10.02C20.5464 9.655 20.5439 9.0625 20.9101 8.695C21.2751 8.3275 21.8676 8.3275 22.2351 8.6925Z" fill="#D4D4D4"/>
</svg>
