<svg width="426" height="397" viewBox="0 0 426 397" fill="none" xmlns="http://www.w3.org/2000/svg">
<g filter="url(#filter0_d_184_350)">
<circle cx="266.258" cy="114.057" r="32.7653" fill="#6F4EB9"/>
<circle cx="266.258" cy="114.057" r="30.8443" fill="#9A7ED9"/>
<circle cx="266.259" cy="114.057" r="27.3984" fill="#2976DF"/>
<mask id="mask0_184_350" style="mask-type:alpha" maskUnits="userSpaceOnUse" x="238" y="86" width="56" height="56">
<circle cx="266.259" cy="114.057" r="27.3984" fill="white"/>
</mask>
<g mask="url(#mask0_184_350)">
<circle cx="262.813" cy="112.337" r="27.3984" fill="#589BF7"/>
</g>
<path d="M256.087 113.092L256.252 112.051L266.546 113.166L266.222 115.215L256.087 113.092Z" fill="#F0F3FC"/>
<path d="M279.146 104.493L279.766 105.347L266.534 115.587L265.315 113.909L279.146 104.493Z" fill="#F0F3FC"/>
<rect x="265.381" y="90.2018" width="1.75492" height="3.6689" fill="#F0F3FC"/>
<rect x="265.381" y="134.243" width="1.75492" height="3.6689" fill="#F0F3FC"/>
<rect x="286.444" y="113.179" width="3.6689" height="1.75492" fill="#F0F3FC"/>
<rect x="242.403" y="113.179" width="3.6689" height="1.75492" fill="#F0F3FC"/>
<circle cx="266.258" cy="114.057" r="4.01624" fill="#D6DCF2"/>
<mask id="mask1_184_350" style="mask-type:alpha" maskUnits="userSpaceOnUse" x="262" y="110" width="9" height="9">
<circle cx="266.258" cy="114.057" r="4.01624" fill="white"/>
</mask>
<g mask="url(#mask1_184_350)">
<circle cx="264.659" cy="114.738" r="4.01624" fill="#F0F3FC"/>
</g>
<path d="M254.618 98.6037C254.094 99.7027 253.456 100.743 252.713 101.707C252.615 101.812 252.615 101.976 252.713 102.081C252.804 102.171 252.999 102.194 253.087 102.081C253.861 101.084 254.527 100.008 255.073 98.8701C255.143 98.7437 255.101 98.585 254.979 98.509C254.853 98.4368 254.692 98.4789 254.617 98.6037H254.618Z" fill="#2976DF"/>
<path d="M284.413 122.524C284.456 124.034 284.027 125.521 283.186 126.776C282.951 127.126 282.685 127.453 282.39 127.755C282.153 127.998 282.526 128.372 282.763 128.128C284.215 126.629 285 124.609 284.941 122.524C284.93 122.185 284.402 122.183 284.413 122.524L284.413 122.524Z" fill="#2976DF"/>
<path d="M231.04 135.382C236.914 131.717 240.288 125.789 241.742 124.659C243.197 123.529 253.162 124.255 253.942 123.408C254.721 122.561 253.194 126.317 249.529 126.958C245.864 127.599 245.121 128.01 245.121 128.01C245.121 128.01 241.794 136.781 239.905 138.38C238.017 139.978 226.87 147.392 226.87 147.392L231.04 135.382Z" fill="#FF9763"/>
<path d="M234.315 132.476C234.315 132.476 240.652 140.688 239.324 145.304L199.903 162.573L170.402 123.646C170.402 123.646 183.902 122.667 187.403 122.302C191.165 121.909 203.26 143.057 207.481 142.885C209.59 142.799 234.315 132.476 234.315 132.476Z" fill="#FE7578"/>
<mask id="mask2_184_350" style="mask-type:alpha" maskUnits="userSpaceOnUse" x="170" y="122" width="70" height="41">
<path fill-rule="evenodd" clip-rule="evenodd" d="M234.315 132.476C234.315 132.476 240.652 140.688 239.324 145.304L199.903 162.573L170.402 123.646C170.402 123.646 183.902 122.667 187.403 122.302C191.165 121.909 203.26 143.057 207.481 142.885C209.59 142.799 234.315 132.476 234.315 132.476Z" fill="white"/>
</mask>
<g mask="url(#mask2_184_350)">
<path d="M191.47 136.292C203.613 156.551 211.666 167.53 224.715 152.202C229.888 146.126 211.666 167.53 211.666 167.53L183.237 163.999V157.736" fill="#BA393C"/>
<circle cx="207.722" cy="142.435" r="0.953865" fill="#190000"/>
<circle cx="234.271" cy="144.352" r="0.953865" fill="#BA393C"/>
</g>
<path d="M282.446 263.762L291.929 260.629L282.823 241.631L271.281 245.445L282.446 263.762Z" fill="#FF9763"/>
<mask id="mask3_184_350" style="mask-type:alpha" maskUnits="userSpaceOnUse" x="271" y="241" width="21" height="23">
<path fill-rule="evenodd" clip-rule="evenodd" d="M282.446 263.762L291.929 260.629L282.823 241.631L271.281 245.445L282.446 263.762Z" fill="white"/>
</mask>
<g mask="url(#mask3_184_350)">
<path d="M266.136 260.528C286.871 253.817 286.383 249.057 286.383 249.057L278.327 248.184L271.281 253.697" fill="#E84B23"/>
</g>
<path d="M318.008 259.971C316.215 256.67 313.341 256.26 309.779 256.714C301.913 257.716 292.56 258.198 289.993 255.122L278.327 258.416L283.77 268.097C284.514 269.421 286.237 270.159 287.562 269.721L318.008 259.971Z" fill="#3A3530"/>
<path d="M267.515 255.309C279.73 254.216 287.86 248.069 287.86 248.069L265.739 199.445C264.459 196.548 262.038 194.216 258.971 192.926L196.539 170.611L197.949 175.077L200.744 191.626L246.398 210.346L267.515 255.309Z" fill="#589BF7"/>
<mask id="mask4_184_350" style="mask-type:alpha" maskUnits="userSpaceOnUse" x="196" y="170" width="92" height="86">
<path fill-rule="evenodd" clip-rule="evenodd" d="M267.515 255.309C279.73 254.216 287.86 248.069 287.86 248.069L265.739 199.445C264.459 196.548 262.038 194.216 258.971 192.926L196.539 170.611L197.949 175.077L200.744 191.626L246.398 210.346L267.515 255.309Z" fill="white"/>
</mask>
<g mask="url(#mask4_184_350)">
<path d="M259.752 248.848C276.343 252.143 286.691 238.442 286.691 238.442" stroke="#2976DF" stroke-width="1.28102" stroke-linecap="round" stroke-linejoin="round"/>
<path d="M275.418 244.917L255.349 204.005C254.725 202.734 253.628 201.757 252.293 201.285L202.434 183.638" stroke="#2976DF" stroke-width="1.28102" stroke-linecap="round" stroke-linejoin="round"/>
<path d="M251.01 232.394C260.465 214.434 258.972 192.926 230.791 193.674C192.747 194.685 220.372 234.536 220.372 234.536H242.2" fill="#2976DF"/>
</g>
<path d="M226.767 283.486L235.443 288.224L239.871 264.807L229.444 258.251L226.767 283.486Z" fill="#FF9763"/>
<mask id="mask5_184_350" style="mask-type:alpha" maskUnits="userSpaceOnUse" x="226" y="258" width="14" height="31">
<path fill-rule="evenodd" clip-rule="evenodd" d="M226.767 283.486L235.443 288.224L239.871 264.807L229.444 258.251L226.767 283.486Z" fill="white"/>
</mask>
<g mask="url(#mask5_184_350)">
<path d="M222.272 271.734C234.91 276.468 238.713 274.059 238.713 274.059L231.72 268.618L222.456 269.277" fill="#E84B23"/>
</g>
<path d="M250.953 307.634C252.449 304.265 250.941 301.812 248.302 299.352C242.474 293.92 236.111 287.032 236.933 283.205L226.843 276.24L224.625 288.224C224.041 289.594 224.551 291.361 225.748 292.114L250.953 307.634Z" fill="#3A3530"/>
<path d="M222.626 267.633C222.626 267.633 235.779 276.962 242.082 273.139L250.907 207.687C251.545 203.198 249.147 198.685 244.883 196.352L196.539 170.611L174.077 175.087L172.65 180.625C170.325 189.651 175.965 199.122 185.511 202.225L228.32 214.286L222.626 267.633Z" fill="#589BF7"/>
<mask id="mask6_184_350" style="mask-type:alpha" maskUnits="userSpaceOnUse" x="172" y="170" width="80" height="105">
<path fill-rule="evenodd" clip-rule="evenodd" d="M222.626 267.633C222.626 267.633 235.779 276.962 242.082 273.139L250.907 207.687C251.545 203.198 249.147 198.685 244.883 196.352L196.539 170.611L174.077 175.087L172.65 180.625C170.325 189.651 175.965 199.122 185.511 202.225L228.32 214.286L222.626 267.633Z" fill="white"/>
</mask>
<g mask="url(#mask6_184_350)">
<path d="M210.821 174.059C170.974 186.421 191.578 202.982 210.821 210.452C230.064 217.923 166.939 218.642 166.939 218.642L159.945 195.811L181.608 180.531L199.145 166.516" fill="#2976DF"/>
<ellipse cx="252.064" cy="205.201" rx="7.63089" ry="2.25459" fill="#FF9763"/>
<path d="M223.359 250.235C209.484 261.416 246.86 266.308 246.86 266.308" stroke="#2976DF" stroke-width="1.28102" stroke-linecap="round" stroke-linejoin="round"/>
<path d="M195.41 184.679C195.526 192.888 188.7 194.179 188.7 194.179L195.41 184.679Z" fill="#589BF7"/>
<path d="M196.54 190.185L232.183 203.609C236.51 205.239 239.216 209.558 238.795 214.163L234.374 262.484" stroke="#2976DF" stroke-width="1.28102" stroke-linecap="round" stroke-linejoin="round"/>
</g>
<path d="M184.39 123.1C180.218 121.917 163.617 122.658 161.627 128.091C160.809 130.325 154.966 147.088 165.883 192.938C172.841 197.367 202.787 170.862 202.787 170.862C202.872 170.822 197.2 151.351 191.848 137.276" fill="#FE7578"/>
<mask id="mask7_184_350" style="mask-type:alpha" maskUnits="userSpaceOnUse" x="159" y="122" width="44" height="72">
<path fill-rule="evenodd" clip-rule="evenodd" d="M184.39 123.1C180.218 121.917 163.617 122.658 161.627 128.091C160.809 130.325 154.966 147.088 165.883 192.938C172.841 197.367 202.787 170.862 202.787 170.862C202.872 170.822 197.2 151.351 191.848 137.276" fill="white"/>
</mask>
<g mask="url(#mask7_184_350)">
<path d="M202.788 170.862C159.601 168.681 160.264 205.668 183.222 190.611C206.179 175.553 178.66 198.935 177.697 199.506C176.734 200.077 156.174 203.504 156.174 203.504L146.803 178.084C146.803 178.084 160.743 160.167 162.742 161.704C164.741 163.241 197.577 163.566 197.577 163.566" fill="#BA393C"/>
<path d="M198.185 179.823C200.498 170.689 182.805 128.084 182.805 128.084L198.185 179.823Z" fill="#FE7578"/>
<path d="M157.371 184.332C162.921 196.356 201.48 167.596 201.48 167.596" stroke="#BA393C" stroke-width="1.28102" stroke-linecap="round" stroke-linejoin="round"/>
</g>
<path d="M175.183 144.352C173.638 154.815 187.084 155.533 194.127 156.156C201.169 156.779 184.987 156.699 191.871 156.93C198.755 157.161 181.177 161.704 181.177 161.704L163.616 160.188L165.537 146.397L175.183 144.352Z" fill="#BA393C"/>
<path d="M203.589 158.17C210.503 157.806 216.325 154.251 218.145 153.967C219.964 153.682 228.334 159.14 229.425 158.776C230.517 158.413 227.363 160.96 223.846 159.747C220.328 158.534 219.479 158.534 219.479 158.534C219.479 158.534 212.322 164.599 209.897 165.084C207.471 165.569 194.128 166.661 194.128 166.661L203.589 158.17Z" fill="#FF9763"/>
<mask id="mask8_184_350" style="mask-type:alpha" maskUnits="userSpaceOnUse" x="194" y="153" width="36" height="14">
<path fill-rule="evenodd" clip-rule="evenodd" d="M203.589 158.17C210.503 157.806 216.325 154.251 218.145 153.967C219.964 153.682 228.334 159.14 229.425 158.776C230.517 158.413 227.363 160.96 223.846 159.747C220.328 158.534 219.479 158.534 219.479 158.534C219.479 158.534 212.322 164.599 209.897 165.084C207.471 165.569 194.128 166.661 194.128 166.661L203.589 158.17Z" fill="white"/>
</mask>
<g mask="url(#mask8_184_350)">
<path d="M209.591 168.474C210.682 160.15 208.462 156.063 208.462 156.063L203.658 165.786L208.591 168.995" fill="#E84B23"/>
</g>
<path d="M175.184 144.352C173.751 149.827 167.817 155.716 167.817 155.716L208.462 156.063C208.462 156.063 209.433 167.465 206.036 170.862H155.424C151.65 170.862 148.314 168.407 147.192 164.803C146.571 162.805 146.696 160.65 147.546 158.738L161.627 128.091" fill="#FE7578"/>
<mask id="mask9_184_350" style="mask-type:alpha" maskUnits="userSpaceOnUse" x="146" y="128" width="63" height="43">
<path fill-rule="evenodd" clip-rule="evenodd" d="M175.184 144.352C173.751 149.827 167.817 155.716 167.817 155.716L208.462 156.063C208.462 156.063 209.433 167.465 206.036 170.862H155.424C151.65 170.862 148.314 168.407 147.192 164.803C146.571 162.805 146.696 160.65 147.546 158.738L161.627 128.091" fill="white"/>
</mask>
<g mask="url(#mask9_184_350)">
<ellipse cx="146.097" cy="170.709" rx="13.2376" ry="10.1543" fill="#BA393C"/>
<ellipse opacity="0.4" cx="147.551" cy="169.255" rx="13.2376" ry="10.1543" stroke="#EA71A2" stroke-width="0.854022" stroke-linecap="round" stroke-linejoin="round" stroke-dasharray="1.71"/>
</g>
<path d="M213.807 165.684L209.591 166.211V164.959L237.128 152.377V154.089L213.807 165.684Z" fill="#FFC562"/>
<path d="M237.127 114.562V154.089H267.431V124.073C267.431 122.32 266.329 120.757 264.678 120.169L241.098 111.762C240.188 111.437 239.176 111.576 238.387 112.132C237.597 112.689 237.127 113.595 237.127 114.562H237.127Z" fill="#FFC562"/>
<mask id="mask10_184_350" style="mask-type:alpha" maskUnits="userSpaceOnUse" x="237" y="111" width="31" height="44">
<path fill-rule="evenodd" clip-rule="evenodd" d="M237.127 114.562V154.089H267.431V124.073C267.431 122.32 266.329 120.757 264.678 120.169L241.098 111.762C240.188 111.437 239.176 111.576 238.387 112.132C237.597 112.689 237.127 113.595 237.127 114.562H237.127Z" fill="white"/>
</mask>
<g mask="url(#mask10_184_350)">
<path d="M260.832 108.389C290.893 139.887 247.651 156.537 247.651 156.537L279.1 164.63L282.8 134.538L269.85 118.236" fill="#D89D35"/>
<circle cx="246.962" cy="133.806" r="5.97468" fill="#935738"/>
<rect x="252.478" y="127.022" width="8.69096" height="8.69096" transform="rotate(-23.7494 252.478 127.022)" fill="#FE7578"/>
<rect x="256.108" y="136.745" width="3.90776" height="3.90776" transform="rotate(33.0926 256.108 136.745)" fill="#F0F3FC"/>
</g>
<path d="M209.591 166.211L237.128 154.089H267.432L239.236 166.87L209.591 166.211Z" fill="#D89D35"/>
<path d="M182.804 128.084L181.402 116.444L170.402 108.389V123.646" fill="#FF9763"/>
<mask id="mask11_184_350" style="mask-type:alpha" maskUnits="userSpaceOnUse" x="170" y="108" width="13" height="21">
<path fill-rule="evenodd" clip-rule="evenodd" d="M182.804 128.084L181.402 116.444L170.402 108.389V123.646" fill="white"/>
</mask>
<g mask="url(#mask11_184_350)">
<path d="M184.316 128.481C181.061 123.492 173.183 112.497 173.183 112.497L183.348 117.919C183.348 117.919 185.704 130.609 184.316 128.481Z" fill="#E84B23"/>
</g>
<path d="M169.775 110.007L168.415 101.879L186.716 99.5089C186.716 99.5089 188.695 112.227 185.2 117.855C183.081 121.267 178.098 119.067 174.502 116.806" fill="#FF9763"/>
<mask id="mask12_184_350" style="mask-type:alpha" maskUnits="userSpaceOnUse" x="168" y="99" width="20" height="21">
<path fill-rule="evenodd" clip-rule="evenodd" d="M169.775 110.007L168.415 101.879L186.716 99.5089C186.716 99.5089 188.695 112.227 185.2 117.855C183.081 121.267 178.098 119.067 174.502 116.806" fill="white"/>
</mask>
<g mask="url(#mask12_184_350)">
<ellipse opacity="0.27" cx="189.17" cy="111.94" rx="2.0722" ry="2.79532" transform="rotate(-68.8498 189.17 111.94)" fill="#E84B23"/>
<ellipse opacity="0.27" cx="178.341" cy="110.601" rx="1.57423" ry="2.59158" transform="rotate(-85.8807 178.341 110.601)" fill="#E84B23"/>
<ellipse opacity="0.27" cx="188.443" cy="111.338" rx="1.57423" ry="2.59158" transform="rotate(-85.8807 188.443 111.338)" fill="#E84B23"/>
<path d="M185.387 108.963C185.193 108.97 185.004 108.9 184.861 108.768C184.719 108.636 184.634 108.453 184.627 108.258L184.579 107.021C184.572 106.827 184.642 106.637 184.774 106.495C184.906 106.352 185.089 106.268 185.284 106.26C185.478 106.253 185.667 106.323 185.81 106.455C185.953 106.587 186.037 106.77 186.044 106.965L186.092 108.202C186.108 108.607 185.792 108.947 185.388 108.963L185.387 108.963Z" fill="#190000"/>
<path d="M180.614 108.948C181.074 108.978 181.467 108.668 181.49 108.255L181.562 106.993C181.586 106.58 181.231 106.221 180.77 106.191C180.309 106.161 179.916 106.471 179.893 106.884L179.821 108.146C179.798 108.559 180.153 108.918 180.614 108.948Z" fill="#190000"/>
<path d="M185.4 104.526C186.912 104.905 186.531 105.736 185.571 105.561C184.61 105.386 184.412 104.279 185.4 104.526Z" fill="#190000"/>
<path d="M180.923 104.375C179.195 104.708 179.491 105.498 180.589 105.353C181.686 105.208 182.052 104.157 180.923 104.375Z" fill="#190000"/>
<path d="M182.284 109.197C182.232 109.723 182.742 109.563 183.345 109.622C183.948 109.682 184.417 109.939 184.469 109.412C184.521 108.886 184.074 108.411 183.47 108.351C182.867 108.292 182.336 108.67 182.284 109.197Z" fill="#E84B23"/>
<path d="M185.244 111.762C184.513 115.438 181.058 113.857 181.022 111.567C181.023 111.449 181.097 111.343 181.208 111.303C181.678 111.126 183.042 110.758 185.053 111.436C185.189 111.482 185.27 111.621 185.244 111.762Z" fill="#C1525F"/>
<mask id="mask13_184_350" style="mask-type:alpha" maskUnits="userSpaceOnUse" x="181" y="111" width="5" height="3">
<path fill-rule="evenodd" clip-rule="evenodd" d="M185.244 111.762C184.513 115.438 181.058 113.857 181.022 111.567C181.023 111.449 181.097 111.343 181.208 111.303C181.678 111.126 183.042 110.758 185.053 111.436C185.189 111.482 185.27 111.621 185.244 111.762Z" fill="white"/>
</mask>
<g mask="url(#mask13_184_350)">
<ellipse cx="182.585" cy="113.762" rx="1.67669" ry="1.87856" transform="rotate(-70.1528 182.585 113.762)" fill="#993443"/>
<path d="M184.605 111.161C184.596 111.405 184.561 111.735 184.496 111.793C184.092 112.15 182.199 111.921 181.947 111.7C181.876 111.639 181.893 110.853 181.893 110.853L184.321 111.019" fill="#F0F3FC"/>
</g>
</g>
<path d="M171.434 109.144C181.993 110.338 172.691 99.0914 186.716 100.615C204.471 102.543 200.126 93.318 195.496 93.7571C186.958 94.5668 199.683 91.5397 185.774 91.3148C179.575 91.2146 160.529 94.4949 168.415 108.389C171.409 113.663 171.137 111.58 171.434 109.144Z" fill="#3A3530"/>
<path d="M175.05 109.064C174.848 108.54 174.559 108.053 174.194 107.625C172.714 105.871 170.339 105.316 168.889 106.387C167.439 107.458 167.464 109.749 168.944 111.504C169.889 112.624 171.198 113.255 172.399 113.286" fill="#FF9763"/>
<path d="M168.701 123.87C168.701 123.87 169.374 121.297 170.403 120.799L182.804 128.084L181.762 130.213L168.701 123.87Z" fill="#F0F3FC"/>
<path d="M184.39 129.624L182.804 128.084L182.231 120.37C183.816 120.578 184.975 122.297 184.975 122.297L184.39 129.624Z" fill="#F0F3FC"/>
<circle cx="202.433" cy="167.596" r="0.953865" fill="#BA393C"/>
<circle cx="196.899" cy="167.596" r="0.953865" fill="#BA393C"/>
<path d="M171.154 107.88C170.803 108.036 170.556 108.374 170.435 108.73C170.312 109.101 170.348 109.506 170.534 109.85C170.665 110.071 170.95 110.145 171.173 110.018C171.392 109.884 171.466 109.602 171.341 109.378C171.327 109.353 171.315 109.328 171.304 109.302L171.351 109.414C171.321 109.341 171.3 109.265 171.289 109.188L171.306 109.312C171.296 109.228 171.296 109.144 171.306 109.06L171.289 109.184C171.302 109.089 171.327 108.996 171.364 108.907L171.317 109.019C171.353 108.936 171.398 108.858 171.453 108.786L171.38 108.881C171.429 108.82 171.485 108.764 171.547 108.716L171.452 108.789C171.506 108.749 171.565 108.715 171.626 108.687C171.732 108.626 171.809 108.525 171.841 108.408C171.873 108.286 171.857 108.157 171.794 108.048C171.732 107.943 171.632 107.866 171.515 107.833C171.393 107.806 171.265 107.823 171.154 107.88L171.154 107.88Z" fill="#190000"/>
<path d="M173.141 100.983L173.488 101.33C173.673 101.505 173.963 101.505 174.149 101.33L174.222 101.235C174.264 101.163 174.286 101.082 174.286 100.999L174.269 100.875C174.248 100.797 174.206 100.726 174.149 100.669L173.802 100.322C173.617 100.146 173.326 100.146 173.141 100.322L173.068 100.416C173.026 100.488 173.004 100.569 173.004 100.652L173.021 100.777C173.042 100.855 173.084 100.926 173.141 100.983Z" fill="#190000"/>
<path d="M185.399 96.2489C187.154 96.769 188.997 96.9203 190.813 96.693C191.055 96.6623 191.293 96.5001 191.281 96.2255C191.27 95.9987 191.073 95.725 190.813 95.758C189.936 95.8701 189.05 95.8916 188.168 95.8224C187.948 95.805 187.728 95.7819 187.509 95.7532C187.61 95.7664 187.432 95.7418 187.414 95.7393C187.371 95.7328 187.327 95.7261 187.284 95.7191C187.167 95.7006 187.051 95.6805 186.935 95.6588C186.501 95.577 186.071 95.473 185.648 95.3473C185.399 95.2799 185.143 95.4261 185.075 95.6743C185.006 95.9226 185.151 96.1794 185.399 96.2489H185.399Z" fill="#190000"/>
<path d="M165.458 155.988C166.254 156.305 167.127 156.378 167.965 156.195C168.213 156.125 168.358 155.869 168.291 155.62C168.218 155.375 167.964 155.231 167.716 155.294C167.664 155.305 167.611 155.315 167.558 155.324C167.544 155.326 167.41 155.345 167.522 155.331C167.428 155.342 167.335 155.351 167.24 155.356C167.059 155.365 166.877 155.361 166.696 155.345C166.673 155.342 166.527 155.325 166.639 155.34C166.599 155.335 166.559 155.329 166.52 155.322C166.427 155.306 166.334 155.286 166.243 155.263C166.06 155.217 165.881 155.158 165.707 155.086C165.48 154.993 165.183 155.187 165.131 155.412C165.069 155.685 165.215 155.888 165.458 155.988Z" fill="#BA393C"/>
<path d="M207.13 143.17L207.609 144.744C207.654 144.905 207.781 145.03 207.942 145.072C208.104 145.114 208.276 145.067 208.393 144.948C208.511 144.829 208.555 144.656 208.511 144.495L208.031 142.922C207.962 142.674 207.705 142.529 207.457 142.597C207.209 142.666 207.062 142.922 207.13 143.17Z" fill="#BA393C"/>
<path d="M228.939 214.727C230.279 214.118 231.479 213.237 232.463 212.141C232.756 211.813 233.029 211.468 233.282 211.108C233.423 210.908 233.324 210.58 233.114 210.468C232.89 210.345 232.609 210.419 232.474 210.636C232.427 210.704 232.379 210.771 232.33 210.837C232.303 210.873 232.277 210.908 232.25 210.943C232.245 210.95 232.206 211.001 232.24 210.957C232.279 210.906 232.214 210.99 232.206 210.999C232.1 211.134 231.99 211.265 231.877 211.394C231.643 211.661 231.395 211.916 231.135 212.158C231.009 212.274 230.881 212.388 230.749 212.498C230.681 212.555 230.612 212.611 230.543 212.667C230.513 212.69 230.483 212.714 230.453 212.737C230.528 212.678 230.424 212.759 230.396 212.78C229.797 213.229 229.15 213.612 228.467 213.92C228.243 214.021 228.172 214.363 228.299 214.56C228.448 214.791 228.699 214.836 228.939 214.727H228.939Z" fill="#2976DF"/>
<path d="M291.928 256.428C293.223 240.35 300.128 251.751 293.381 256.889C293.381 256.889 301.375 253.53 302.242 254.05" stroke="#190000" stroke-width="1.28102" stroke-linecap="round" stroke-linejoin="round"/>
<path d="M237.043 287.762C238.339 271.684 245.244 283.085 238.496 288.224C238.496 288.224 246.49 284.864 247.357 285.385" stroke="#190000" stroke-width="1.28102" stroke-linecap="round" stroke-linejoin="round"/>
<path d="M172.727 114.07L172.903 115.283C172.935 115.401 173.012 115.501 173.118 115.563C173.225 115.625 173.352 115.643 173.472 115.611C173.592 115.58 173.695 115.502 173.757 115.395L173.805 115.283C173.827 115.202 173.827 115.116 173.805 115.035L173.628 113.821C173.596 113.703 173.519 113.603 173.413 113.542C173.306 113.479 173.179 113.462 173.059 113.493C172.939 113.524 172.836 113.602 172.774 113.709L172.727 113.821C172.704 113.902 172.704 113.988 172.727 114.07Z" fill="#E84B23"/>
<path d="M219.914 158.629V158.167C219.908 157.911 219.702 157.706 219.447 157.699L219.323 157.716C219.245 157.737 219.174 157.779 219.116 157.836C219.03 157.925 218.981 158.043 218.979 158.167V158.629C218.986 158.885 219.192 159.09 219.447 159.097L219.571 159.08C219.649 159.058 219.72 159.017 219.778 158.96C219.864 158.871 219.913 158.753 219.914 158.629Z" fill="#E84B23"/>
<path d="M220 181.713L219.643 182.227C219.609 182.279 219.59 182.339 219.588 182.4C219.565 182.586 219.652 182.768 219.811 182.866C219.92 182.929 220.049 182.946 220.171 182.913L220.283 182.866C220.352 182.826 220.41 182.768 220.45 182.699L220.807 182.185C220.841 182.133 220.86 182.073 220.862 182.011C220.885 181.826 220.798 181.644 220.639 181.545C220.53 181.482 220.401 181.465 220.279 181.498L220.167 181.545C220.098 181.586 220.04 181.644 220 181.713Z" fill="#2976DF"/>
<path fill-rule="evenodd" clip-rule="evenodd" d="M135.552 100.908L151.609 150.299C151.633 150.372 151.61 150.453 151.551 150.503C151.492 150.553 151.409 150.563 151.34 150.528L85.8925 117.195C85.8236 117.16 85.7826 117.086 85.7887 117.009C85.7947 116.932 85.8466 116.866 85.9201 116.843L135.311 100.785C135.411 100.753 135.519 100.808 135.552 100.908ZM110.481 118.855L135.537 131.616C135.606 131.651 135.689 131.641 135.748 131.591C135.807 131.541 135.83 131.46 135.806 131.387L129.658 112.478C129.626 112.378 129.518 112.323 129.418 112.355L110.509 118.503C110.436 118.527 110.384 118.592 110.378 118.669C110.372 118.746 110.413 118.82 110.481 118.855Z" fill="#97CC64"/>
<mask id="mask14_184_350" style="mask-type:alpha" maskUnits="userSpaceOnUse" x="85" y="100" width="67" height="51">
<path fill-rule="evenodd" clip-rule="evenodd" d="M151.609 150.299L135.552 100.908C135.519 100.808 135.411 100.753 135.311 100.785L85.9201 116.843C85.8466 116.866 85.7947 116.932 85.7887 117.009C85.7826 117.086 85.8236 117.16 85.8925 117.195L151.34 150.528C151.409 150.563 151.492 150.553 151.551 150.503C151.61 150.453 151.633 150.372 151.609 150.299ZM135.537 131.616L110.481 118.855C110.413 118.82 110.372 118.746 110.378 118.669C110.384 118.592 110.436 118.527 110.509 118.503L129.418 112.355C129.518 112.323 129.626 112.378 129.658 112.478L135.806 131.387C135.83 131.46 135.807 131.541 135.748 131.591C135.689 131.641 135.606 131.651 135.537 131.616Z" fill="white"/>
</mask>
<g mask="url(#mask14_184_350)">
<path d="M91.7294 112.068C83.0432 122.045 122.751 127.874 132.823 141.097C142.896 154.321 86.9603 135.833 86.9603 135.833L83.6699 114.752" fill="#75AA3C"/>
</g>
<path d="M135.765 105.786L134.111 106.324" stroke="#75AA3C" stroke-width="0.65"/>
<path d="M136.935 109.386L135.281 109.924" stroke="#75AA3C" stroke-width="0.65"/>
<path d="M140.446 120.187L138.793 120.725" stroke="#75AA3C" stroke-width="0.65"/>
<path d="M141.617 123.787L139.964 124.325" stroke="#75AA3C" stroke-width="0.65"/>
<path d="M138.106 112.987L136.452 113.524" stroke="#75AA3C" stroke-width="0.65"/>
<path d="M139.275 116.587L137.622 117.124" stroke="#75AA3C" stroke-width="0.65"/>
<path d="M143.958 130.988L142.305 131.525" stroke="#75AA3C" stroke-width="0.65"/>
<path d="M146.299 138.188L144.646 138.725" stroke="#75AA3C" stroke-width="0.65"/>
<path d="M142.787 127.387L141.134 127.925" stroke="#75AA3C" stroke-width="0.65"/>
<path d="M145.128 134.588L143.475 135.125" stroke="#75AA3C" stroke-width="0.65"/>
<path d="M147.469 141.788L145.815 142.326" stroke="#75AA3C" stroke-width="0.65"/>
<path d="M148.639 145.388L146.985 145.926" stroke="#75AA3C" stroke-width="0.65"/>
<path d="M91.4609 116.266L91.9985 117.92" stroke="#75AA3C" stroke-width="0.65"/>
<path d="M95.0615 115.096L95.599 116.749" stroke="#75AA3C" stroke-width="0.65"/>
<path d="M105.861 111.585L106.399 113.238" stroke="#75AA3C" stroke-width="0.65"/>
<path d="M109.462 110.414L109.999 112.068" stroke="#75AA3C" stroke-width="0.65"/>
<path d="M98.6611 113.925L99.1987 115.579" stroke="#75AA3C" stroke-width="0.65"/>
<path d="M102.261 112.755L102.798 114.408" stroke="#75AA3C" stroke-width="0.65"/>
<path d="M116.662 108.073L117.2 109.727" stroke="#75AA3C" stroke-width="0.65"/>
<path d="M123.862 105.732L124.4 107.386" stroke="#75AA3C" stroke-width="0.65"/>
<path d="M113.062 109.244L113.599 110.897" stroke="#75AA3C" stroke-width="0.65"/>
<path d="M120.263 106.903L120.8 108.556" stroke="#75AA3C" stroke-width="0.65"/>
<path d="M127.463 104.562L128 106.215" stroke="#75AA3C" stroke-width="0.65"/>
<path d="M131.062 103.392L131.6 105.045" stroke="#75AA3C" stroke-width="0.65"/>
<path d="M114.688 124.953C114.916 126.446 116.329 127.628 117.827 127.643C118.012 127.643 118.161 127.493 118.161 127.309C118.161 127.125 118.012 126.975 117.827 126.975C117.739 126.974 117.651 126.968 117.562 126.96C117.457 126.951 117.624 126.973 117.52 126.955C117.477 126.947 117.433 126.94 117.39 126.931C117.239 126.897 117.091 126.853 116.947 126.798C116.91 126.783 116.906 126.781 116.935 126.793C116.915 126.785 116.895 126.776 116.875 126.766C116.835 126.748 116.795 126.729 116.756 126.708C116.687 126.673 116.62 126.635 116.554 126.594C116.488 126.554 116.423 126.51 116.361 126.465C116.343 126.452 116.325 126.439 116.307 126.425C116.331 126.443 116.328 126.44 116.297 126.416C116.267 126.391 116.237 126.366 116.208 126.341C115.975 126.145 115.779 125.909 115.631 125.643C115.59 125.571 115.552 125.498 115.517 125.423C115.513 125.415 115.477 125.33 115.498 125.381C115.481 125.34 115.466 125.299 115.451 125.258C115.397 125.101 115.357 124.94 115.332 124.776C115.305 124.597 115.081 124.499 114.922 124.542C114.731 124.595 114.661 124.774 114.688 124.953L114.688 124.953Z" fill="#75AA3C"/>
<path d="M170.669 203.476C170.503 198.896 169.372 194.403 167.351 190.291C166.583 188.73 165.69 187.233 164.68 185.816C157.146 175.222 143.636 169.767 130.269 173.131C116.903 176.496 107.585 187.696 105.963 200.595C105.745 202.321 105.666 204.062 105.729 205.801C105.895 210.38 107.025 214.873 109.047 218.985C116.977 218.73 127.628 217.346 140.577 214.087C153.527 210.828 163.563 207.005 170.669 203.476Z" fill="#9A7ED9"/>
<mask id="mask15_184_350" style="mask-type:alpha" maskUnits="userSpaceOnUse" x="105" y="172" width="66" height="47">
<path fill-rule="evenodd" clip-rule="evenodd" d="M170.669 203.476C170.503 198.896 169.372 194.403 167.351 190.291C166.583 188.73 165.69 187.233 164.68 185.816C157.146 175.222 143.636 169.767 130.269 173.131C116.903 176.496 107.585 187.696 105.963 200.595C105.745 202.321 105.666 204.062 105.729 205.801C105.895 210.38 107.025 214.873 109.047 218.985C116.977 218.73 127.628 217.346 140.577 214.087C153.527 210.828 163.563 207.005 170.669 203.476Z" fill="white"/>
</mask>
<g mask="url(#mask15_184_350)">
<path d="M117.286 167.775C186.435 171.869 172.238 209.796 122.931 217.663C73.6234 225.529 188.096 212.471 188.096 212.471L186.226 174.827L133.79 164.643L119.793 171.714" fill="#6F4EB9"/>
</g>
<path d="M111.719 223.46C119.253 234.055 132.763 239.509 146.13 236.145C159.496 232.781 168.815 221.58 170.436 208.682C162.434 212.388 152.437 215.825 141.696 218.528C130.955 221.231 120.522 222.937 111.719 223.46Z" fill="#9A7ED9"/>
<mask id="mask16_184_350" style="mask-type:alpha" maskUnits="userSpaceOnUse" x="111" y="208" width="60" height="30">
<path fill-rule="evenodd" clip-rule="evenodd" d="M111.719 223.46C119.253 234.055 132.763 239.509 146.13 236.145C159.496 232.781 168.815 221.58 170.436 208.682C162.434 212.388 152.437 215.825 141.696 218.528C130.955 221.231 120.522 222.937 111.719 223.46Z" fill="white"/>
</mask>
<g mask="url(#mask16_184_350)">
<path d="M126.511 240.11C106.695 223.634 145.522 220.264 162.862 210.717C180.201 201.17 95.54 217.83 95.54 217.83L110.843 236.059" fill="#6F4EB9"/>
</g>
<path d="M187.93 192.122C186.832 187.759 180.7 185.578 169.705 185.642C168.103 185.651 166.421 185.713 164.681 185.816C165.69 187.233 166.583 188.73 167.351 190.291C177.367 189.969 183.039 191.449 183.49 193.239C183.94 195.029 179.644 199.018 170.67 203.476C163.564 207.005 153.527 210.828 140.578 214.087C127.629 217.346 116.978 218.73 109.048 218.985C99.0329 219.307 93.3604 217.827 92.9096 216.037C92.4593 214.247 96.7553 210.258 105.73 205.801C105.667 204.062 105.745 202.321 105.964 200.595C104.382 201.327 102.871 202.069 101.456 202.82C91.7403 207.969 87.3712 212.792 88.4692 217.155C89.5673 221.517 95.6993 223.698 106.695 223.634C108.297 223.625 109.979 223.564 111.719 223.46C120.522 222.937 130.955 221.231 141.696 218.528C152.437 215.825 162.433 212.388 170.436 208.682C172.017 207.949 173.528 207.207 174.944 206.457C184.659 201.308 189.028 196.484 187.93 192.122Z" fill="#97CC64"/>
<mask id="mask17_184_350" style="mask-type:alpha" maskUnits="userSpaceOnUse" x="88" y="185" width="101" height="39">
<path fill-rule="evenodd" clip-rule="evenodd" d="M187.93 192.122C186.832 187.759 180.7 185.578 169.705 185.642C168.103 185.651 166.421 185.713 164.681 185.816C165.69 187.233 166.583 188.73 167.351 190.291C177.367 189.969 183.039 191.449 183.49 193.239C183.94 195.029 179.644 199.018 170.67 203.476C163.564 207.005 153.527 210.828 140.578 214.087C127.629 217.346 116.978 218.73 109.048 218.985C99.0329 219.307 93.3604 217.827 92.9096 216.037C92.4593 214.247 96.7553 210.258 105.73 205.801C105.667 204.062 105.745 202.321 105.964 200.595C104.382 201.327 102.871 202.069 101.456 202.82C91.7403 207.969 87.3712 212.792 88.4692 217.155C89.5673 221.517 95.6993 223.698 106.695 223.634C108.297 223.625 109.979 223.564 111.719 223.46C120.522 222.937 130.955 221.231 141.696 218.528C152.437 215.825 162.433 212.388 170.436 208.682C172.017 207.949 173.528 207.207 174.944 206.457C184.659 201.308 189.028 196.484 187.93 192.122Z" fill="white"/>
</mask>
<g mask="url(#mask17_184_350)">
<path d="M80.9346 204.638C111.436 199.833 108.511 213.533 108.511 213.533L116.032 196.519L103.915 194.009" fill="#75AA3C"/>
<path d="M156.352 181.039C171.602 183.12 173.273 194.009 173.273 194.009L160.321 196.519L156.143 192.521" fill="#75AA3C"/>
</g>
<path d="M137.298 187.284C136.063 189.396 134.336 191.178 132.264 192.478L137.298 187.284Z" fill="#190000"/>
<path d="M137.009 187.115C135.808 189.181 134.122 190.923 132.095 192.19C131.936 192.283 131.882 192.487 131.975 192.646C132.068 192.806 132.273 192.859 132.432 192.766C134.088 191.725 135.533 190.382 136.694 188.807C137.015 188.372 137.313 187.919 137.586 187.452C137.803 187.08 137.226 186.744 137.009 187.115L137.009 187.115Z" fill="#6F4EB9"/>
<path d="M154.215 226.556C153.716 227.242 153.075 227.813 152.336 228.229L154.215 226.556Z" fill="#190000"/>
<path d="M153.927 226.388C153.896 226.43 153.865 226.472 153.833 226.513C153.862 226.476 153.831 226.516 153.818 226.532C153.802 226.552 153.785 226.573 153.769 226.593C153.703 226.673 153.634 226.752 153.564 226.829C153.427 226.979 153.282 227.122 153.13 227.258C153.056 227.324 152.98 227.388 152.903 227.45C152.882 227.466 152.862 227.482 152.841 227.498C152.813 227.52 152.87 227.478 152.822 227.513C152.78 227.544 152.738 227.575 152.696 227.605C152.526 227.726 152.349 227.838 152.167 227.94C152.064 228.001 152.001 228.111 152.002 228.231C152.003 228.35 152.067 228.46 152.17 228.519C152.274 228.578 152.401 228.577 152.504 228.517C153.291 228.069 153.973 227.458 154.504 226.725C154.596 226.566 154.542 226.362 154.384 226.268C154.224 226.18 154.023 226.233 153.927 226.388V226.388Z" fill="#6F4EB9"/>
<path d="M100.303 220.692L98.4316 222.373L100.303 220.692Z" fill="#190000"/>
<path d="M100.066 220.456L98.1945 222.137C98.0654 222.267 98.0654 222.478 98.1945 222.609C98.3266 222.735 98.5347 222.735 98.6667 222.609L100.538 220.928C100.667 220.797 100.667 220.586 100.538 220.456C100.406 220.329 100.198 220.329 100.066 220.456Z" fill="#75AA3C"/>
<path d="M340.282 190.35C340.282 187.98 338.361 186.059 335.991 186.059H245.272C242.902 186.059 240.98 187.98 240.98 190.35V195.614H340.282V190.35Z" fill="#EFF3FC"/>
<mask id="mask18_184_350" style="mask-type:alpha" maskUnits="userSpaceOnUse" x="240" y="186" width="101" height="10">
<path fill-rule="evenodd" clip-rule="evenodd" d="M340.282 190.35C340.282 187.98 338.361 186.059 335.991 186.059H245.272C242.902 186.059 240.98 187.98 240.98 190.35V195.614H340.282V190.35Z" fill="white"/>
</mask>
<g mask="url(#mask18_184_350)">
<path d="M287.959 183.635C271.613 188.7 343.211 183.151 342.751 191.911C342.29 200.671 341.369 178.8 341.369 178.8L305.916 179.721" fill="#D6DCF2"/>
</g>
<path d="M240.98 195.614V248.152C240.98 250.522 242.902 252.443 245.272 252.443H335.991C338.361 252.443 340.282 250.522 340.282 248.152V195.614H240.98Z" fill="#D6DCF2"/>
<mask id="mask19_184_350" style="mask-type:alpha" maskUnits="userSpaceOnUse" x="240" y="195" width="101" height="58">
<path fill-rule="evenodd" clip-rule="evenodd" d="M240.98 195.614V248.152C240.98 250.522 242.902 252.443 245.272 252.443H335.991C338.361 252.443 340.282 250.522 340.282 248.152V195.614H240.98Z" fill="white"/>
</mask>
<g mask="url(#mask19_184_350)">
<path d="M238.922 241.392C238.577 255.578 335.991 252.443 335.991 252.443L242.375 269.391L227.526 259.376" fill="#BFC8E2"/>
</g>
<circle cx="246.375" cy="190.722" r="1.18869" fill="#BB393C"/>
<circle cx="251.37" cy="190.722" r="1.18869" fill="#FFC562"/>
<circle cx="256.364" cy="190.722" r="1.18869" fill="#75AA3C"/>
<rect x="248.793" y="200.908" width="83.6756" height="45.3288" rx="2.49141" fill="#9A7ED9"/>
<mask id="mask20_184_350" style="mask-type:alpha" maskUnits="userSpaceOnUse" x="248" y="200" width="85" height="47">
<rect x="248.793" y="200.908" width="83.6756" height="45.3288" rx="2.49141" fill="white"/>
</mask>
<g mask="url(#mask20_184_350)">
<path d="M330.433 196.313C332.468 244.44 237.54 248.188 237.54 248.188L344.936 265.247L351.954 219.251" fill="#6F4EB9"/>
</g>
<ellipse opacity="0.36" cx="290.631" cy="221.484" rx="13.2713" ry="13.2878" fill="#EFF3FC"/>
<path d="M286.934 221.484V216.588C286.933 216.29 287.092 216.016 287.349 215.867C287.607 215.718 287.924 215.718 288.182 215.866L292.416 218.314L296.651 220.762C296.909 220.911 297.067 221.186 297.067 221.484C297.067 221.781 296.909 222.056 296.651 222.205L292.416 224.653L288.182 227.101C287.924 227.25 287.607 227.25 287.349 227.101C287.092 226.952 286.933 226.677 286.934 226.38V221.484Z" fill="#EFF3FC"/>
<path d="M262.48 212.835C261.745 213.698 260.839 214.4 259.82 214.896C259.646 215 259.587 215.224 259.688 215.4C259.794 215.571 260.016 215.629 260.192 215.532C261.264 215.002 262.219 214.261 263.001 213.355C263.14 213.21 263.14 212.98 263.001 212.835C262.863 212.708 262.614 212.679 262.48 212.835L262.48 212.835Z" fill="#6F4EB9"/>
<path d="M323.774 237.611L321.702 238.302C321.506 238.356 321.391 238.559 321.445 238.755C321.499 238.95 321.702 239.066 321.898 239.012L323.97 238.321C324.097 238.286 324.196 238.186 324.229 238.059C324.263 237.931 324.225 237.796 324.131 237.703C324.037 237.611 323.901 237.576 323.774 237.611Z" fill="#6F4EB9"/>
</g>
<defs>
<filter id="filter0_d_184_350" x="0.788086" y="0.291382" width="424.494" height="396.343" filterUnits="userSpaceOnUse" color-interpolation-filters="sRGB">
<feFlood flood-opacity="0" result="BackgroundImageFix"/>
<feColorMatrix in="SourceAlpha" type="matrix" values="0 0 0 0 0 0 0 0 0 0 0 0 0 0 0 0 0 0 127 0" result="hardAlpha"/>
<feOffset dy="4"/>
<feGaussianBlur stdDeviation="42.5"/>
<feComposite in2="hardAlpha" operator="out"/>
<feColorMatrix type="matrix" values="0 0 0 0 1 0 0 0 0 1 0 0 0 0 1 0 0 0 0.25 0"/>
<feBlend mode="normal" in2="BackgroundImageFix" result="effect1_dropShadow_184_350"/>
<feBlend mode="normal" in="SourceGraphic" in2="effect1_dropShadow_184_350" result="shape"/>
</filter>
</defs>
</svg>
