<svg width="18" height="18" viewBox="0 0 18 18" fill="none" xmlns="http://www.w3.org/2000/svg">
<path fill-rule="evenodd" clip-rule="evenodd" d="M8.78283 0.666687C13.2578 0.666687 16.8978 4.30669 16.8978 8.78169C16.8978 10.893 16.0876 12.8186 14.7617 14.2638L17.3707 16.8673C17.6148 17.1114 17.6157 17.5064 17.3715 17.7506C17.2498 17.8739 17.089 17.9348 16.929 17.9348C16.7698 17.9348 16.6098 17.8739 16.4873 17.7523L13.8469 15.1192C12.4579 16.2316 10.6967 16.8975 8.78283 16.8975C4.30783 16.8975 0.666992 13.2567 0.666992 8.78169C0.666992 4.30669 4.30783 0.666687 8.78283 0.666687ZM8.78283 1.91669C4.99699 1.91669 1.91699 4.99585 1.91699 8.78169C1.91699 12.5675 4.99699 15.6475 8.78283 15.6475C12.5678 15.6475 15.6478 12.5675 15.6478 8.78169C15.6478 4.99585 12.5678 1.91669 8.78283 1.91669Z" fill="#D4D4D4"/>
</svg>
