<svg width="25" height="27" viewBox="0 0 25 27" fill="none" xmlns="http://www.w3.org/2000/svg">
<path fill-rule="evenodd" clip-rule="evenodd" d="M13.3342 0.50061C14.2292 0.50061 15.0991 0.86811 15.7229 1.50686C16.3454 2.14936 16.6891 3.03061 16.6629 3.92436C16.6654 4.12561 16.7316 4.35811 16.8517 4.56186C17.0504 4.89936 17.3641 5.13686 17.7367 5.23436C18.1091 5.32686 18.4991 5.27686 18.8304 5.08061C20.4304 4.16686 22.4667 4.71436 23.3804 6.30186L24.1592 7.65061C24.1792 7.68686 24.1966 7.72186 24.2117 7.75811C25.0392 9.32186 24.4867 11.2906 22.9492 12.1894C22.7254 12.3181 22.5442 12.4981 22.4192 12.7156C22.2254 13.0519 22.1716 13.4519 22.2691 13.8194C22.3692 14.1944 22.6079 14.5056 22.9442 14.6981C23.7029 15.1344 24.2691 15.8694 24.4954 16.7181C24.7216 17.5656 24.5979 18.4856 24.1567 19.2444L23.3267 20.6269C22.4129 22.1969 20.3766 22.7406 18.7929 21.8256C18.5816 21.7044 18.3379 21.6381 18.0954 21.6319H18.0879C17.7267 21.6319 17.3554 21.7856 17.0854 22.0544C16.8116 22.3281 16.6616 22.6931 16.6642 23.0806C16.6554 24.9169 15.1617 26.4019 13.3342 26.4019H11.7679C9.93165 26.4019 8.4379 24.9094 8.4379 23.0731C8.4354 22.8469 8.3704 22.6119 8.24915 22.4081C8.0529 22.0656 7.7354 21.8206 7.36915 21.7231C7.0054 21.6256 6.60665 21.6794 6.27915 21.8694C5.49415 22.3069 4.5704 22.4131 3.7254 22.1756C2.88165 21.9369 2.1529 21.3569 1.7254 20.5881L0.94415 19.2419C0.0303997 17.6569 0.57415 15.6256 2.15665 14.7106C2.6054 14.4519 2.88415 13.9694 2.88415 13.4519C2.88415 12.9344 2.6054 12.4506 2.15665 12.1919C0.5729 11.2719 0.0303997 9.23561 0.9429 7.65061L1.7904 6.25936C2.69165 4.69186 4.72915 4.13936 6.3179 5.05186C6.53415 5.18061 6.76915 5.24561 7.0079 5.24811C7.78665 5.24811 8.4379 4.60561 8.4504 3.81561C8.4454 2.94436 8.78915 2.10811 9.4154 1.47686C10.0441 0.84686 10.8792 0.50061 11.7679 0.50061H13.3342ZM13.3342 2.37561H11.7679C11.3804 2.37561 11.0179 2.52686 10.7442 2.79936C10.4717 3.07311 10.3229 3.43686 10.3254 3.82436C10.2991 5.65186 8.8054 7.12311 6.99665 7.12311C6.41665 7.11686 5.8579 6.96061 5.3729 6.67061C4.69165 6.28311 3.80165 6.52186 3.4029 7.21561L2.55665 8.60686C2.16915 9.27936 2.40665 10.1681 3.09665 10.5694C4.1204 11.1619 4.75915 12.2669 4.75915 13.4519C4.75915 14.6369 4.1204 15.7406 3.09415 16.3344C2.4079 16.7319 2.1704 17.6156 2.5679 18.3031L3.35665 19.6631C3.55165 20.0144 3.8704 20.2681 4.23915 20.3719C4.60665 20.4744 5.01165 20.4306 5.34915 20.2431C5.8454 19.9519 6.4229 19.8006 7.0029 19.8006C7.28915 19.8006 7.5754 19.8369 7.8554 19.9119C8.7004 20.1394 9.43415 20.7044 9.86915 21.4631C10.1516 21.9394 10.3079 22.4956 10.3129 23.0631C10.3129 23.8756 10.9654 24.5269 11.7679 24.5269H13.3342C14.1329 24.5269 14.7854 23.8794 14.7892 23.0806C14.7842 22.1981 15.1292 21.3594 15.7604 20.7281C16.3829 20.1056 17.2529 19.7319 18.1229 19.7569C18.6929 19.7706 19.2417 19.9244 19.7254 20.1994C20.4216 20.5981 21.3104 20.3606 21.7129 19.6731L22.5429 18.2894C22.7279 17.9706 22.7817 17.5706 22.6829 17.2019C22.5854 16.8331 22.3404 16.5131 22.0104 16.3244C21.2379 15.8794 20.6866 15.1619 20.4579 14.3019C20.2316 13.4581 20.3554 12.5369 20.7966 11.7781C21.0842 11.2781 21.5054 10.8569 22.0104 10.5669C22.6879 10.1706 22.9254 9.28436 22.5317 8.59436C22.5154 8.56686 22.5004 8.53811 22.4879 8.50811L21.7554 7.23811C21.3566 6.54436 20.4692 6.30561 19.7729 6.70186C19.0204 7.14686 18.1254 7.27436 17.2654 7.04811C16.4067 6.82561 15.6867 6.28186 15.2379 5.51436C14.9504 5.03436 14.7942 4.47561 14.7892 3.90686C14.8004 3.47936 14.6504 3.09561 14.3779 2.81436C14.1066 2.53436 13.7254 2.37561 13.3342 2.37561ZM12.5565 9.21824C14.8903 9.21824 16.789 11.1182 16.789 13.452C16.789 15.7857 14.8903 17.6832 12.5565 17.6832C10.2228 17.6832 8.32402 15.7857 8.32402 13.452C8.32402 11.1182 10.2228 9.21824 12.5565 9.21824ZM12.5565 11.0932C11.2565 11.0932 10.199 12.152 10.199 13.452C10.199 14.752 11.2565 15.8082 12.5565 15.8082C13.8565 15.8082 14.914 14.752 14.914 13.452C14.914 12.152 13.8565 11.0932 12.5565 11.0932Z" fill="#D4D4D4"/>
</svg>
