<svg width="27" height="26" viewBox="0 0 27 26" fill="none" xmlns="http://www.w3.org/2000/svg">
<path fill-rule="evenodd" clip-rule="evenodd" d="M13.2937 2.04878C15.3262 0.763776 18.0262 0.408776 20.3587 1.15628C25.4324 2.79253 27.0074 8.32378 25.5987 12.725C23.4249 19.6375 14.1412 24.7938 13.7474 25.01C13.6074 25.0875 13.4524 25.1263 13.2974 25.1263C13.1424 25.1263 12.9887 25.0888 12.8487 25.0125C12.4574 24.7988 3.2412 19.7188 0.994946 12.7263C0.993696 12.7263 0.993696 12.725 0.993696 12.725C-0.416304 8.32253 1.1537 2.79003 6.22245 1.15628C8.60245 0.386276 11.1962 0.725026 13.2937 2.04878ZM6.79745 2.94128C2.6962 4.26378 1.6662 8.67503 2.77995 12.1538C4.53245 17.6063 11.4562 22.015 13.2962 23.1063C15.1424 22.0038 22.1162 17.5463 23.8124 12.1588C24.9262 8.67628 23.8924 4.26503 19.7849 2.94128C17.7949 2.30253 15.4737 2.69128 13.8712 3.93128C13.5362 4.18878 13.0712 4.19378 12.7337 3.93878C11.0362 2.66253 8.8187 2.28878 6.79745 2.94128ZM18.5849 5.42365C20.2887 5.9749 21.4824 7.48365 21.6287 9.2674C21.6699 9.78365 21.2862 10.2362 20.7699 10.2774C20.7437 10.2799 20.7187 10.2812 20.6924 10.2812C20.2087 10.2812 19.7987 9.9099 19.7587 9.4199C19.6762 8.3924 18.9887 7.5249 18.0099 7.20865C17.5162 7.04865 17.2462 6.5199 17.4049 6.02865C17.5662 5.53615 18.0899 5.26865 18.5849 5.42365Z" fill="#D4D4D4"/>
</svg>
